<svg width="31" height="31" viewBox="0 0 31 31" fill="none" xmlns="http://www.w3.org/2000/svg">
<path fill-rule="evenodd" clip-rule="evenodd" d="M19.536 17.6207L20.1489 18.2336C20.6851 18.1953 21.2597 18.3868 21.6428 18.8082L30.1467 27.3121C30.9511 28.0782 30.9511 29.3806 30.1467 30.1467C29.3806 30.9511 28.0782 30.9511 27.3121 30.1467L18.8082 21.6428C18.3868 21.2597 18.1953 20.6851 18.2336 20.1489L17.6207 19.536C13.3304 22.9069 7.12488 22.5621 3.21769 18.6166C-1.07256 14.3647 -1.07256 7.46964 3.21769 3.21769C7.46964 -1.07256 14.3647 -1.07256 18.6166 3.21769C22.5621 7.12488 22.8686 13.3304 19.536 17.6207ZM5.40112 5.40112C2.37496 8.46559 2.37496 13.3687 5.40112 16.4332C8.46559 19.4594 13.3687 19.4594 16.4332 16.4332C19.4594 13.3687 19.4594 8.46559 16.4332 5.40112C13.3687 2.37496 8.46559 2.37496 5.40112 5.40112Z" fill="#48484A"/>
</svg>
