<svg width="32" height="24" viewBox="0 0 32 24" fill="none" xmlns="http://www.w3.org/2000/svg">
<path d="M22.5538 17.4824C23.4012 17.4824 24.0885 16.8477 24.0885 16.0003C24.0885 11.6223 20.5262 8.08667 16.1474 8.08667C11.7687 8.08667 8.20642 11.6096 8.20642 15.9877C8.20642 16.8351 8.89374 17.4831 9.74113 17.4831H22.5538V17.4824Z" fill="white"/>
<path d="M30.1887 23.8009H1.40412C0.629048 23.8009 0 23.1719 0 22.3968C0 21.6217 0.629048 20.9927 1.40412 20.9927H30.1887C30.9638 20.9927 31.5928 21.6217 31.5928 22.3968C31.5928 23.1719 30.9638 23.8009 30.1887 23.8009Z" fill="white"/>
<path d="M16.1475 5.77686C15.2917 5.77686 14.7434 5.08322 14.7434 4.22811V1.74843C14.7434 0.892612 15.2917 0.198975 16.1475 0.198975C17.0033 0.198975 17.5517 0.892612 17.5517 1.74843V4.22741C17.5517 5.08322 17.0033 5.77686 16.1475 5.77686Z" fill="white"/>
<path d="M23.4139 8.78658C22.808 8.1814 22.808 7.20062 23.4139 6.59544L25.1662 4.84239C25.7707 4.23792 26.7529 4.23792 27.3574 4.84239C27.9625 5.44757 27.9625 6.42905 27.3574 7.03353L25.605 8.78658C24.9984 9.39176 24.0184 9.39176 23.4139 8.78658Z" fill="white"/>
<path d="M30.4506 14.6741H27.9716C27.1158 14.6741 26.4221 15.2301 26.4221 16.0859C26.4221 16.8912 27.0392 17.4823 27.8248 17.4823H29.0183C29.071 17.4823 29.118 17.4823 29.1672 17.4823H30.4506C31.3064 17.4823 32 16.934 32 16.0782C32 15.2224 31.3064 14.6741 30.4506 14.6741Z" fill="white"/>
<path d="M5.8721 16.0782C5.8721 15.2224 5.17847 14.6741 4.32265 14.6741H1.84437C0.988559 14.6741 0.294922 15.2224 0.294922 16.0782C0.294922 16.934 0.988559 17.4823 1.84437 17.4823H4.32336C5.17847 17.4823 5.8721 16.9333 5.8721 16.0782Z" fill="white"/>
<path d="M8.88183 8.78658C9.48701 8.1814 9.48701 7.20062 8.88183 6.59544L7.12878 4.84239C6.52361 4.23792 5.54283 4.23792 4.93765 4.84239C4.33247 5.44757 4.33247 6.42906 4.93765 7.03353L6.6907 8.78658C7.29587 9.39246 8.27666 9.39246 8.88183 8.78658Z" fill="white"/>
</svg>
