<svg width="38" height="28" viewBox="0 0 38 28" fill="none" xmlns="http://www.w3.org/2000/svg">
<path d="M19 5.44C19.7494 5.44 20.3571 4.83106 20.3571 4.08V1.36C20.3571 0.608945 19.7494 0 19 0C18.2506 0 17.6428 0.608945 17.6428 1.36V4.08C17.6428 4.83106 18.2506 5.44 19 5.44Z" fill="white"/>
<path fill-rule="evenodd" clip-rule="evenodd" d="M8.93209 13.6H1.35714C0.607666 13.6 0 14.2091 0 14.96C0 15.711 0.607666 16.32 1.35714 16.32H36.6429C37.3923 16.32 38 15.711 38 14.96C38 14.2091 37.3923 13.6 36.6429 13.6H29.068C27.4576 9.61269 23.5565 6.80005 19 6.80005C14.4435 6.80005 10.5424 9.61269 8.93209 13.6ZM19 9.52005C22.0138 9.52005 24.6453 11.1609 26.0535 13.6H11.9466C13.3547 11.1609 15.9862 9.52005 19 9.52005Z" fill="white"/>
<path d="M7.48414 8.06343L8.44435 9.02515C8.97381 9.55623 9.8333 9.55623 10.3634 9.02515C10.8936 8.4939 10.8936 7.63295 10.3634 7.10169L9.40389 6.14013C8.87375 5.60905 8.01427 5.60905 7.48414 6.14013C6.95467 6.67121 6.95467 7.53234 7.48414 8.06343Z" fill="white"/>
<path d="M28.5968 6.14013L27.6373 7.10169C27.1071 7.63277 27.1071 8.4939 27.6373 9.02499C28.1674 9.55624 29.0262 9.55624 29.5563 9.02499L30.5159 8.06343C31.046 7.53234 31.046 6.67121 30.5159 6.14013C29.9864 5.60889 29.1269 5.60889 28.5968 6.14013Z" fill="white"/>
<path d="M5.42855 19.04C4.67907 19.04 4.07141 19.649 4.07141 20.4C4.07141 21.151 4.67907 21.76 5.42855 21.76H32.5714C33.3208 21.76 33.9286 21.151 33.9286 20.4C33.9286 19.649 33.3208 19.04 32.5714 19.04H5.42855Z" fill="white"/>
<path d="M8.14282 25.84C8.14282 25.089 8.75048 24.48 9.49996 24.48H28.5C29.2494 24.48 29.8571 25.089 29.8571 25.84C29.8571 26.591 29.2494 27.2 28.5 27.2H9.49996C8.75048 27.2 8.14282 26.591 8.14282 25.84Z" fill="white"/>
</svg>
